<svg id="Layer_1" data-name="Layer 1" xmlns="http://www.w3.org/2000/svg" viewBox="0 0 245.48 115.23"><defs><style>.cls-1{fill:#fff;}.cls-2{fill:#4db748;}</style></defs><path class="cls-1" d="M259.55,369.7a12.77,12.77,0,0,1,2.81,8.13,13.09,13.09,0,0,1-2,7.29,13.5,13.5,0,0,1-5.87,4.91,21.47,21.47,0,0,1-9.1,1.78H223.1V340.2h21.29a22.16,22.16,0,0,1,9.06,1.7,12.93,12.93,0,0,1,5.76,4.73,12.4,12.4,0,0,1,2,6.88,11.76,11.76,0,0,1-2.4,7.54,12.86,12.86,0,0,1-6.39,4.29A11.65,11.65,0,0,1,259.55,369.7Zm-26.1-8.21h9.46a8.64,8.64,0,0,0,5.69-1.66,5.84,5.84,0,0,0,2-4.77,5.93,5.93,0,0,0-2-4.8,8.48,8.48,0,0,0-5.69-1.7h-9.46Zm16.3,20.11a6.17,6.17,0,0,0,2.11-5,6.46,6.46,0,0,0-2.22-5.21,8.94,8.94,0,0,0-6-1.89h-10.2v13.9h10.42A8.81,8.81,0,0,0,249.75,381.6Z" transform="translate(-211.37 -333.84)"/><path class="cls-2" d="M280.43,335.58a6.81,6.81,0,0,0-9.09,0,6.07,6.07,0,0,0,0,8.65,6.81,6.81,0,0,0,9.09,0,6.07,6.07,0,0,0,0-8.65Z" transform="translate(-211.37 -333.84)"/><path class="cls-1" d="M309.7,424.37v24H299.35V425.78c0-3.26-.82-5.76-2.44-7.51a8.66,8.66,0,0,0-6.66-2.62,8.84,8.84,0,0,0-6.76,2.62Q281,420.9,281,425.78V448.4H270.66V393.69l0-1.88v-41H281v41l0,1.88v18.85a13.55,13.55,0,0,1,5.32-4.17,17.68,17.68,0,0,1,7.4-1.52,16.71,16.71,0,0,1,8.28,2,14.06,14.06,0,0,1,5.65,6A20.53,20.53,0,0,1,309.7,424.37Z" transform="translate(-211.37 -333.84)"/><path class="cls-1" d="M303.24,359.35v19.82a3.89,3.89,0,0,0,1,3,4.89,4.89,0,0,0,3.36.92h4.81v8.73H305.9q-13.08,0-13.08-12.72V359.35h-4.88v-8.5h4.88V340.72h10.42v10.13h9.17v8.5Z" transform="translate(-211.37 -333.84)"/><path class="cls-1" d="M357.66,374.43h-30a10.16,10.16,0,0,0,3.11,6.95,9.55,9.55,0,0,0,6.73,2.52,8.43,8.43,0,0,0,8.2-5h11.17a18.66,18.66,0,0,1-6.81,9.73,19.82,19.82,0,0,1-12.34,3.8,21.34,21.34,0,0,1-10.61-2.62,18.5,18.5,0,0,1-7.32-7.43,22.75,22.75,0,0,1-2.63-11.09,23.22,23.22,0,0,1,2.59-11.16,18.08,18.08,0,0,1,7.25-7.4,21.75,21.75,0,0,1,10.72-2.59,21.49,21.49,0,0,1,10.46,2.52,17.65,17.65,0,0,1,7.17,7.13A21.6,21.6,0,0,1,358,370.44,25.22,25.22,0,0,1,357.66,374.43Zm-10.43-6.95a8.21,8.21,0,0,0-2.88-6.39,10.25,10.25,0,0,0-6.88-2.4A9.37,9.37,0,0,0,331,361a10.18,10.18,0,0,0-3.21,6.46Z" transform="translate(-211.37 -333.84)"/><path class="cls-1" d="M214.8,408.88a24.66,24.66,0,0,1,9.39-9.38,26.59,26.59,0,0,1,13.35-3.37,26.24,26.24,0,0,1,15.16,4.44,23.23,23.23,0,0,1,9.09,12.27h-11.9a12.42,12.42,0,0,0-5-5.55,14.71,14.71,0,0,0-7.44-1.84,15.33,15.33,0,0,0-8,2.1,14.42,14.42,0,0,0-5.47,6,21.64,21.64,0,0,0,0,18,14.38,14.38,0,0,0,5.47,6,15.33,15.33,0,0,0,8,2.1,14.44,14.44,0,0,0,7.44-1.88,12.66,12.66,0,0,0,5-5.58h11.9a23.16,23.16,0,0,1-9.06,12.31,26.38,26.38,0,0,1-15.19,4.4,26.7,26.7,0,0,1-13.35-3.37,24.73,24.73,0,0,1-9.39-9.35,28.78,28.78,0,0,1,0-27.25Z" transform="translate(-211.37 -333.84)"/><path class="cls-1" d="M357.31,431H327.37a10.19,10.19,0,0,0,3.1,7,9.62,9.62,0,0,0,6.73,2.51,8.46,8.46,0,0,0,8.21-4.95h11.16a18.66,18.66,0,0,1-6.8,9.72,19.85,19.85,0,0,1-12.35,3.81,21.38,21.38,0,0,1-10.61-2.63,18.44,18.44,0,0,1-7.32-7.43,22.75,22.75,0,0,1-2.62-11.09,23.11,23.11,0,0,1,2.59-11.16,18,18,0,0,1,7.24-7.39,23.29,23.29,0,0,1,21.19-.08,17.73,17.73,0,0,1,7.17,7.14A21.58,21.58,0,0,1,357.61,427,24.19,24.19,0,0,1,357.31,431Zm-10.42-6.95a8.2,8.2,0,0,0-2.89-6.4,10.2,10.2,0,0,0-6.87-2.4,9.35,9.35,0,0,0-6.47,2.33,10.27,10.27,0,0,0-3.22,6.47Z" transform="translate(-211.37 -333.84)"/><path class="cls-1" d="M365.07,416.79a18.57,18.57,0,0,1,7.18-7.39,20.71,20.71,0,0,1,10.49-2.62q7.62,0,12.61,3.8A18.49,18.49,0,0,1,402,421.27H390.88a8.12,8.12,0,0,0-3-4.18,8.68,8.68,0,0,0-5.21-1.51,8.53,8.53,0,0,0-7,3.21c-1.73,2.14-2.59,5.19-2.59,9.13s.86,6.91,2.59,9.06a8.53,8.53,0,0,0,7,3.21q6.29,0,8.21-5.61H402a18.84,18.84,0,0,1-6.73,10.57,19.84,19.84,0,0,1-12.57,3.92,20.71,20.71,0,0,1-10.49-2.63,18.51,18.51,0,0,1-7.18-7.39,25.3,25.3,0,0,1,0-22.26Z" transform="translate(-211.37 -333.84)"/><path class="cls-1" d="M433.91,448.4,420,431V448.4H409.66V393.69H420v31.13l13.75-17.38h13.46l-18,20.56,18.18,20.4Z" transform="translate(-211.37 -333.84)"/><circle class="cls-2" cx="241.5" cy="111.25" r="3.98"/></svg>